# xmcd CD database file
#
# Track frame offsets:
#	150
#	12107
#	29459
#	40604
#	44701
#	65760
#	81114
#	94403
#	111660
#	123341
#	132230
#	147555
#	159957
#	176249
#	190207
#	207551
#	222315
#	232607
#	248246
#	262898
#	280841
#	301071
#
# Disc length: 4263 seconds
#
# Revision: 2
# Processed by: cddbd v1.5.2PL0 Copyright (c) Steve Scherf et al.
# Submitted via: CDex 1.51
#
DISCID=4310a516
DTITLE=Raekwon - Only Built 4 Cuban Linx Pt. II
DYEAR=2009
DGENRE=Hip Hop
TTITLE0=Return of the North Star
TTITLE1=House of Flying Daggers
TTITLE2=Sonny's Missing
TTITLE3=Pyrex Vision
TTITLE4=Cold Outside
TTITLE5=Black Mozart
TTITLE6=Gihad
TTITLE7=New Wu
TTITLE8=Penitentiary
TTITLE9=Baggin Crack
TTITLE10=Surgical Gloves
TTITLE11=Broken Safety
TTITLE12=Canal Street
TTITLE13=Ason Jones
TTITLE14=Have Mercy
TTITLE15=10 Bricks
TTITLE16=Fat Lady Sings
TTITLE17=Catalina
TTITLE18=We Will Rob You
TTITLE19=About Me
TTITLE20=Mean Streets
TTITLE21=Kiss the Ring
EXTD=YEAR: 2009
EXTT0=
EXTT1=
EXTT2=
EXTT3=
EXTT4=
EXTT5=
EXTT6=
EXTT7=
EXTT8=
EXTT9=
EXTT10=
EXTT11=
EXTT12=
EXTT13=
EXTT14=
EXTT15=
EXTT16=
EXTT17=
EXTT18=
EXTT19=
EXTT20=
EXTT21=
PLAYORDER=
